<?xml version="1.0" standalone="no"?>
<!DOCTYPE svg PUBLIC "-//W3C//DTD SVG 20010904//EN"
 "http://www.w3.org/TR/2001/REC-SVG-20010904/DTD/svg10.dtd">
<svg version="1.0" xmlns="http://www.w3.org/2000/svg"
 width="795.000000pt" height="795.000000pt" viewBox="0 0 795.000000 795.000000"
 preserveAspectRatio="xMidYMid meet">
<metadata>
Created by potrace 1.14, written by Peter Selinger 2001-2017
</metadata>
<g transform="translate(0.000000,795.000000) scale(0.100000,-0.100000)"
fill="#000000" stroke="none">
<path d="M4865 6911 c12 -92 14 -104 25 -155 5 -27 8 -51 6 -54 -2 -2 -51 -6
-108 -8 -230 -11 -294 -15 -306 -19 -10 -4 -12 -18 -7 -57 4 -29 9 -73 12 -98
2 -25 6 -52 7 -60 6 -33 18 -128 21 -165 2 -22 4 -43 4 -46 1 -4 8 -10 17 -13
8 -3 13 -2 10 2 -8 13 63 84 76 76 7 -4 8 -3 4 4 -6 11 6 16 27 13 4 0 7 3 7
8 0 15 97 36 165 34 73 -1 127 -22 167 -66 22 -22 37 -46 34 -54 -3 -7 -1 -13
4 -13 6 0 10 -9 10 -21 0 -17 -4 -19 -22 -13 -30 9 -355 11 -393 2 -16 -3 -59
-9 -95 -13 -36 -3 -76 -8 -90 -10 -62 -8 -115 -17 -120 -20 -3 -1 -27 -6 -53
-9 -26 -4 -69 -10 -95 -15 -26 -5 -54 -9 -62 -9 -8 -1 -40 -4 -70 -7 -30 -4
-85 -8 -121 -10 -90 -6 -102 7 -114 123 -6 54 -11 63 -33 55 -35 -12 -39 -29
-26 -102 6 -39 17 -77 23 -84 6 -8 7 -18 3 -22 -4 -5 -2 -5 4 -2 7 4 17 1 23
-7 23 -27 95 -35 201 -22 25 3 65 8 90 11 65 8 191 28 246 39 42 8 100 17 139
22 22 2 72 8 110 13 94 13 431 9 445 -5 17 -17 -54 -107 -73 -91 -2 1 -11 -5
-20 -14 -12 -13 -36 -17 -104 -17 -48 0 -91 2 -97 5 -5 3 -25 7 -44 9 -18 2
-40 8 -46 14 -7 5 -15 7 -18 5 -3 -3 -17 -1 -32 5 l-27 10 5 -53 c3 -28 10
-74 16 -100 5 -27 9 -51 8 -55 -1 -7 10 -75 18 -103 4 -14 14 -16 57 -11 85 9
263 5 283 -7 15 -8 15 -11 4 -11 -8 -1 -26 -4 -40 -7 -14 -3 -36 -6 -50 -7
-14 0 -27 -4 -30 -8 -3 -4 -24 -10 -45 -13 -49 -7 -69 -12 -117 -24 -21 -5
-38 -7 -38 -4 0 3 -6 0 -14 -6 -8 -6 -28 -13 -45 -14 -17 -1 -31 -6 -31 -11 0
-4 -9 -6 -21 -3 -12 3 -18 3 -15 -1 9 -8 -75 -32 -88 -25 -6 3 -8 2 -3 -2 10
-11 -51 -37 -67 -28 -6 3 -8 3 -4 -2 9 -10 -82 -56 -95 -48 -6 3 -7 1 -4 -4 6
-10 -6 -20 -26 -21 -5 0 -15 -9 -23 -19 -7 -10 -14 -15 -14 -11 0 4 -12 -3
-26 -16 -66 -59 -62 -57 -107 -45 -23 6 -44 11 -47 12 -3 0 -21 4 -40 9 -19 5
-48 11 -65 14 -196 31 -169 28 -290 38 -44 3 -98 9 -120 11 -22 3 -89 8 -150
11 -60 3 -126 7 -145 9 -107 10 -166 17 -173 22 -4 3 -27 7 -50 10 -22 2 -46
7 -51 11 -6 3 -21 7 -34 8 -14 2 -32 6 -41 10 -9 4 -25 9 -36 11 -72 14 -245
128 -230 153 3 4 1 10 -5 12 -20 6 -23 60 -26 450 -1 218 -5 409 -7 425 -7 39
-24 80 -37 88 -5 3 -7 11 -4 17 4 7 2 8 -4 4 -7 -4 -12 -3 -12 2 0 9 -109 63
-140 69 -27 6 -194 5 -235 -1 -22 -3 -64 -14 -93 -26 -45 -17 -53 -18 -58 -5
-4 8 -9 13 -14 10 -4 -2 -16 4 -28 15 -19 18 -54 29 -142 45 -61 11 -213 6
-269 -9 -30 -8 -58 -13 -62 -10 -4 2 -9 0 -11 -5 -1 -5 -10 -11 -18 -13 -8 -2
-20 -8 -28 -15 -7 -7 -20 -9 -29 -6 -9 4 -14 2 -10 -3 3 -6 -8 -19 -26 -29
-18 -10 -48 -34 -67 -52 -19 -18 -38 -33 -42 -33 -5 0 -8 -7 -8 -15 0 -9 -7
-18 -15 -21 -8 -4 -15 -12 -15 -20 0 -8 -4 -14 -10 -14 -5 0 -10 -7 -10 -15 0
-9 -7 -18 -15 -21 -8 -4 -13 -10 -10 -14 3 -5 -1 -15 -9 -23 -8 -8 -13 -17
-10 -20 3 -2 -2 -20 -10 -38 -18 -43 -29 -71 -30 -84 -1 -5 -6 -35 -10 -65
-12 -72 -10 -182 3 -249 6 -29 8 -57 5 -62 -3 -5 0 -9 7 -9 6 0 9 -8 6 -20 -3
-11 -1 -20 5 -20 6 0 8 -7 4 -15 -3 -8 -1 -15 5 -15 6 0 8 -7 5 -16 -3 -8 -2
-13 3 -10 11 7 32 -49 23 -60 -4 -4 -1 -4 6 0 6 4 12 2 12 -3 0 -6 0 -13 0
-16 0 -2 16 -21 35 -42 18 -20 31 -41 28 -47 -3 -5 -1 -6 4 -3 13 8 46 -27 36
-37 -5 -4 -3 -6 2 -5 16 5 65 -32 58 -44 -3 -5 -1 -7 5 -3 6 3 17 0 25 -8 8
-8 17 -12 21 -9 3 4 6 1 6 -6 0 -7 4 -10 9 -6 5 3 17 -3 27 -12 10 -10 19 -16
21 -14 2 1 16 -1 31 -7 59 -22 68 -25 82 -27 81 -11 87 -18 95 -101 2 -27 5
-49 6 -49 1 0 3 -9 5 -20 9 -59 13 -82 18 -105 5 -24 13 -74 22 -135 2 -16 8
-52 14 -80 6 -27 12 -68 15 -90 3 -22 9 -60 14 -85 8 -42 19 -108 24 -155 1
-14 -6 -21 -28 -25 l-30 -6 41 -42 c22 -23 46 -42 52 -42 6 0 16 -8 21 -18 8
-14 5 -23 -12 -38 -12 -10 -26 -17 -30 -16 -5 1 -6 -2 -3 -7 4 -5 -2 -16 -11
-23 -10 -7 -23 -22 -30 -33 -6 -11 -16 -19 -22 -18 -6 2 -10 0 -9 -5 0 -4 -2
-15 -7 -25 -9 -21 21 -49 45 -42 45 13 99 14 109 1 12 -14 5 -46 -10 -46 -5 0
-9 -5 -9 -11 0 -6 -6 -25 -14 -42 -22 -51 -29 -71 -27 -80 0 -4 -3 -16 -8 -25
-20 -37 30 -68 68 -43 23 15 25 15 19 0 -4 -9 -3 -20 2 -25 7 -8 20 -95 25
-170 1 -17 4 -35 7 -40 3 -5 9 -35 13 -67 5 -41 13 -64 31 -82 13 -13 24 -22
24 -19 0 5 17 -8 50 -38 10 -9 21 -14 24 -11 3 3 8 -2 12 -11 3 -9 12 -16 20
-16 8 0 14 -4 14 -8 0 -5 12 -14 26 -20 15 -7 22 -17 18 -24 -4 -6 -3 -8 4 -4
16 10 62 -41 64 -72 1 -33 1 -33 17 -105 7 -32 10 -61 7 -64 -3 -4 -2 -11 3
-17 5 -6 12 -33 16 -61 3 -27 8 -59 10 -70 2 -11 7 -36 10 -55 3 -19 8 -46 11
-60 2 -14 6 -34 8 -45 2 -11 6 -31 10 -45 3 -14 9 -43 12 -65 3 -22 8 -53 11
-70 3 -16 6 -41 7 -55 0 -14 4 -27 8 -30 3 -3 8 -26 11 -52 3 -25 7 -50 10
-55 4 -7 14 -71 23 -143 1 -14 3 -25 4 -25 3 0 8 -26 14 -75 3 -19 5 -35 6
-35 2 0 10 -38 14 -70 2 -16 7 -38 11 -48 4 -9 5 -23 2 -31 -3 -7 -2 -17 3
-22 8 -8 18 -64 24 -130 1 -11 5 -24 7 -30 3 -5 5 -20 5 -34 -1 -14 2 -28 7
-31 4 -3 9 -25 11 -50 2 -24 7 -51 10 -59 3 -8 7 -33 9 -56 2 -23 6 -45 9 -50
3 -5 9 -31 13 -59 4 -27 9 -61 12 -75 2 -14 5 -37 7 -51 1 -14 6 -30 9 -36 3
-5 8 -28 9 -51 2 -30 8 -42 22 -46 11 -3 15 -9 10 -17 -4 -8 -3 -10 5 -5 6 4
14 -1 19 -13 4 -11 11 -21 17 -23 5 -2 9 -7 7 -11 -1 -5 2 -6 6 -3 5 3 17 -3
27 -14 10 -11 15 -20 12 -20 -4 0 6 -12 21 -27 38 -37 95 -140 86 -154 -4 -7
-3 -9 3 -6 5 3 17 -9 26 -28 17 -35 38 -43 65 -26 14 8 13 23 -5 136 -3 17 -6
44 -6 60 -1 17 -5 32 -9 35 -3 3 -9 30 -13 60 -8 69 -11 93 -23 153 l-10 49
62 -5 c96 -7 126 -17 194 -65 18 -13 29 -28 26 -34 -4 -6 -2 -8 3 -5 13 8 46
-27 36 -37 -5 -4 -3 -6 3 -4 14 4 106 -97 96 -106 -4 -4 -1 -6 7 -4 8 2 20 -8
28 -22 7 -14 13 -21 13 -16 0 5 7 3 15 -4 8 -7 12 -16 9 -21 -3 -5 -2 -8 3 -7
14 4 94 -48 86 -56 -5 -4 -3 -6 2 -4 10 3 94 -31 105 -42 3 -3 12 -7 20 -8 8
-2 24 -6 35 -9 54 -13 105 -19 105 -11 0 4 7 8 15 8 9 0 34 9 56 20 22 12 45
18 51 14 7 -4 8 -3 4 4 -6 11 -3 13 19 12 3 0 15 9 27 19 11 11 25 18 30 15 4
-3 8 -1 8 4 0 8 73 46 90 47 3 1 16 7 28 14 13 7 26 10 29 7 4 -3 12 -1 19 5
19 15 100 1 120 -22 20 -22 22 -95 5 -127 -6 -12 -11 -30 -11 -40 0 -22 2 -22
103 15 21 7 43 10 49 7 7 -5 8 -2 3 6 -6 10 -4 12 9 7 9 -4 15 -3 12 2 -3 5 7
14 23 19 31 11 191 167 191 187 0 3 0 10 0 16 0 5 5 7 12 3 6 -4 8 -3 5 4 -10
15 3 43 16 35 6 -3 7 -1 3 5 -4 6 0 24 8 40 8 15 17 44 21 65 4 20 11 37 15
37 5 0 6 9 3 20 -3 11 -1 20 3 20 5 0 9 12 10 28 0 15 6 70 13 122 14 108 19
201 26 450 6 203 6 200 17 200 4 0 16 7 25 15 10 8 21 15 26 15 19 0 179 157
182 180 4 25 18 49 27 44 6 -4 8 -2 5 4 -10 15 3 43 16 35 6 -3 7 -1 3 5 -4 6
-3 20 3 29 8 16 4 18 -42 15 -172 -11 -287 -12 -287 -4 0 6 -10 8 -22 4 -14
-3 -19 -1 -14 6 4 8 2 10 -7 6 -18 -6 -91 61 -82 76 3 5 2 10 -3 10 -5 0 -10
19 -10 43 -1 31 5 50 22 70 13 15 28 27 34 27 6 0 12 6 14 13 6 15 218 20 298
6 30 -5 75 -12 100 -15 25 -2 47 -9 48 -14 2 -6 8 -8 12 -5 12 8 140 -17 140
-26 0 -4 9 -6 20 -4 11 2 34 -1 52 -6 18 -5 47 -12 63 -14 101 -18 152 -27
165 -32 15 -5 70 -11 128 -15 28 -1 36 -7 47 -36 8 -19 12 -39 8 -45 -3 -6 -1
-7 5 -3 7 4 12 1 12 -7 0 -8 11 -35 25 -61 14 -26 22 -52 19 -58 -4 -6 -3 -8
3 -5 8 5 53 -78 50 -93 -1 -3 7 -14 16 -25 9 -11 17 -23 17 -28 0 -4 9 -17 20
-29 11 -12 20 -28 20 -35 0 -7 4 -13 8 -13 12 0 42 -56 34 -65 -4 -5 -1 -5 6
-1 8 5 17 -4 27 -26 8 -18 14 -29 15 -25 0 5 12 -6 27 -25 15 -18 32 -36 38
-40 5 -4 7 -8 4 -8 -10 0 61 -70 70 -70 5 0 16 -8 25 -19 32 -36 200 -43 331
-15 31 7 194 6 255 -2 30 -3 66 -7 80 -9 37 -3 37 -3 51 -37 16 -40 19 -51 25
-108 8 -71 5 -147 -8 -177 -6 -16 -12 -30 -12 -33 -1 -3 -11 -19 -23 -36 -25
-34 -63 -62 -90 -67 -10 -1 -24 -6 -31 -11 -7 -4 -19 -5 -27 -2 -8 3 -17 0
-21 -5 -8 -14 -170 0 -214 18 -8 3 -17 7 -20 8 -67 18 -160 56 -160 66 0 5 -3
8 -7 8 -18 -3 -29 2 -55 24 -15 12 -46 35 -68 51 -22 17 -40 33 -40 38 0 4 -4
8 -9 8 -12 0 -105 61 -109 72 -2 5 -7 6 -12 3 -5 -3 -14 0 -22 7 -7 7 -22 15
-33 16 -11 2 -21 8 -23 12 -2 5 -10 6 -17 4 -8 -3 -20 -2 -27 2 -11 7 -34 7
-103 0 -11 -1 -30 -8 -42 -14 -13 -7 -23 -11 -23 -8 0 8 -154 -126 -157 -137
-5 -18 -41 -56 -47 -49 -4 3 -4 0 -1 -9 3 -8 -2 -24 -12 -35 -10 -11 -19 -26
-21 -34 -2 -8 -8 -18 -14 -21 -5 -3 -9 -9 -9 -13 4 -25 0 -36 -11 -30 -6 4 -8
3 -4 -4 3 -6 1 -23 -5 -39 -6 -15 -10 -29 -10 -31 1 -1 -6 -18 -14 -38 -21
-50 -19 -81 5 -94 16 -8 27 -7 50 7 17 9 30 20 30 24 0 4 8 9 18 12 9 2 24 8
34 12 14 6 15 2 7 -32 -5 -21 -11 -78 -14 -128 -4 -49 -8 -98 -11 -108 -7 -23
11 -18 44 10 14 13 33 23 43 23 9 0 19 5 21 12 3 7 27 12 64 12 l59 1 1 -50
c1 -27 -2 -74 -6 -102 -3 -29 -5 -51 -2 -49 2 2 16 0 32 -4 23 -7 33 -4 52 14
13 13 34 29 48 36 29 15 200 24 200 10 0 -5 7 -7 15 -4 8 4 21 1 29 -5 7 -6
16 -8 19 -4 4 3 7 1 7 -6 0 -7 4 -10 9 -6 15 9 168 -85 156 -96 -2 -3 4 -5 13
-6 9 -1 35 -6 57 -12 22 -7 56 -13 75 -15 33 -4 163 -16 185 -18 6 0 42 3 80
7 39 5 78 8 87 9 9 0 14 4 12 8 -3 4 1 8 9 8 8 0 26 9 39 20 14 10 29 16 32
12 4 -4 6 0 4 8 -2 8 3 14 10 12 8 -1 11 2 8 7 -3 5 4 16 17 24 12 8 37 29 56
46 19 17 38 28 44 24 6 -3 7 -1 4 4 -8 13 43 33 82 33 52 0 115 -81 105 -136
-2 -16 -7 -34 -9 -41 -2 -7 0 -15 6 -18 5 -4 7 -9 5 -13 -5 -8 56 -10 64 -2 3
3 23 14 45 25 22 11 44 26 48 33 5 7 14 9 20 6 7 -4 9 -4 6 0 -4 4 8 33 27 63
19 31 34 63 34 71 0 7 5 10 12 6 7 -4 8 -3 4 4 -4 6 0 33 9 59 10 27 18 57 20
68 1 11 5 34 9 51 21 107 27 210 26 429 -1 188 -5 293 -16 390 -2 28 -7 73 -9
100 -6 72 -15 138 -20 151 -4 14 79 97 88 88 4 -4 7 -1 7 7 0 8 11 26 24 40
13 14 27 35 30 47 4 12 10 22 14 22 4 0 8 10 8 23 1 12 4 38 8 57 3 19 9 62
12 94 6 58 5 59 -18 52 -35 -11 -732 -16 -818 -6 -134 15 -185 22 -193 27 -4
2 -29 6 -55 9 -48 5 -100 42 -106 75 -1 8 -7 23 -14 35 -6 11 -13 33 -16 48
-3 14 -7 34 -10 44 -4 14 -8 82 -20 355 0 15 -4 27 -7 27 -4 0 -9 8 -12 18 -2
9 -8 25 -12 34 -7 18 7 22 120 33 65 5 82 8 105 18 8 4 29 9 45 11 17 2 38 7
47 11 9 4 22 4 28 0 5 -3 10 -1 10 6 0 6 8 9 20 6 11 -3 20 -1 20 5 0 6 7 8
15 4 8 -3 15 -1 15 4 0 8 81 26 107 23 7 0 11 3 8 7 -3 4 12 11 33 16 42 8 42
8 62 17 36 16 100 36 100 31 0 -2 18 5 40 16 23 11 45 18 50 15 6 -3 10 -1 10
5 0 7 7 10 15 6 8 -3 15 -1 15 5 0 6 5 7 10 4 6 -3 10 -2 10 3 0 9 40 24 56
21 4 0 10 3 13 8 9 12 173 88 183 85 5 -1 7 2 4 7 -3 5 7 14 23 21 17 6 44 23
62 36 18 13 37 21 43 17 6 -3 8 -3 4 2 -8 8 51 51 64 47 5 -1 7 1 6 6 -1 4 27
37 62 73 80 81 109 116 102 124 -3 3 0 5 7 5 7 0 10 4 6 9 -3 5 2 16 10 25 9
8 15 17 14 18 -2 5 24 92 31 103 12 19 3 185 -15 275 -5 27 -44 129 -71 187
-19 39 -34 76 -34 82 0 6 -4 11 -9 11 -5 0 -13 10 -17 23 -4 12 -10 24 -15 27
-4 3 -9 11 -11 19 -2 8 -13 25 -26 39 -12 14 -20 27 -18 29 2 2 -10 19 -26 38
-17 18 -30 36 -30 39 1 2 -10 17 -23 33 -14 15 -57 66 -96 113 -39 47 -94 109
-122 138 l-51 54 57 54 c31 30 61 54 67 54 6 0 8 5 5 10 -3 6 0 10 8 10 8 0
17 9 20 21 3 12 10 18 16 14 6 -3 11 -1 11 5 0 6 10 21 23 34 37 39 80 89 116
136 19 25 42 51 50 58 9 7 14 14 12 15 -3 1 7 20 21 42 14 22 37 63 52 90 14
28 40 66 56 86 53 62 43 135 -29 214 -16 18 -27 36 -24 39 4 3 1 6 -6 6 -6 0
-24 11 -39 25 -24 23 -126 80 -134 75 -2 -1 -14 3 -28 8 -14 5 -63 13 -109 17
-69 6 -82 5 -75 -6 4 -8 25 -39 45 -69 50 -74 79 -164 79 -245 0 -71 -17 -155
-31 -155 -5 0 -8 -3 -7 -7 4 -14 -32 -93 -42 -93 -5 0 -9 -4 -8 -9 4 -14 -85
-131 -100 -131 -7 0 -10 -4 -7 -10 3 -5 -2 -10 -11 -10 -10 0 -15 -3 -12 -6 5
-5 -36 -45 -89 -89 -7 -5 -20 -16 -29 -24 -14 -12 -19 -10 -39 15 -12 16 -23
32 -24 36 -1 4 -15 21 -31 38 -16 17 -35 44 -42 60 -7 17 -16 30 -19 30 -5 0
-48 87 -54 110 -1 3 -4 12 -8 20 -19 46 -26 102 -23 184 4 104 9 136 32 215 9
31 18 63 19 71 2 8 8 30 14 48 9 30 8 32 -12 27 -12 -2 -58 -9 -103 -15 -102
-13 -135 -23 -190 -55 -60 -35 -125 -134 -140 -210 -11 -61 33 -154 91 -192
19 -12 43 -45 60 -79 16 -33 42 -78 57 -101 15 -23 28 -44 28 -47 0 -3 7 -14
15 -23 8 -10 14 -20 13 -23 -1 -3 10 -18 25 -34 15 -16 24 -32 22 -36 -3 -5
-1 -10 5 -12 5 -1 34 -39 64 -82 l55 -79 -67 -61 c-112 -103 -326 -318 -367
-371 -22 -27 -42 -52 -45 -55 -27 -24 -126 -206 -122 -222 1 -5 -2 -8 -6 -8
-4 0 -8 -8 -9 -17 0 -10 -8 -48 -16 -85 -25 -112 -13 -275 31 -412 17 -55 89
-168 124 -196 13 -10 34 -27 47 -39 38 -33 161 -93 241 -117 41 -13 72 -24 68
-25 -16 -3 -24 -6 -40 -13 -9 -4 -22 -9 -30 -10 -7 -2 -26 -8 -43 -15 -48 -20
-225 -69 -295 -82 -36 -6 -112 -13 -170 -14 -85 -2 -115 1 -160 18 -30 11 -57
23 -60 27 -3 4 -14 10 -26 14 -37 11 -126 109 -155 170 -40 84 -52 154 -45
255 8 111 8 111 18 111 5 0 7 4 4 9 -10 15 21 75 53 103 17 14 31 24 31 22 0
-20 256 286 336 401 26 39 52 73 57 76 5 3 8 9 7 13 -2 10 42 100 53 107 5 3
8 9 6 13 -3 11 35 120 44 127 5 3 8 8 6 10 -1 2 5 45 15 94 10 50 21 109 26
132 10 55 10 325 0 388 -9 53 -13 75 -26 140 -10 49 -9 47 -17 65 -3 8 -17 45
-30 81 -14 36 -35 85 -48 110 -13 24 -22 47 -21 52 1 4 -2 7 -6 7 -4 0 -16 14
-26 32 -23 38 -43 64 -73 93 -13 12 -23 26 -23 31 0 5 -13 18 -29 29 -16 10
-27 24 -24 30 4 5 3 7 -1 3 -4 -4 -34 13 -66 36 -32 23 -92 58 -134 76 l-76
34 6 60 c3 34 7 68 9 76 3 8 7 40 10 71 l6 55 -88 1 c-64 1 -95 -3 -115 -15
-16 -9 -28 -19 -28 -22 0 -14 -68 -78 -85 -81 -31 -4 -62 10 -87 39 -53 63
-87 79 -170 80 l-77 0 -67 -59 c-79 -70 -120 -78 -157 -32 -75 92 -75 91 -171
91 l-88 -1 7 -56z m173 -50 c38 -60 81 -83 146 -79 52 3 60 6 118 60 60 55 66
58 114 58 55 0 65 -6 142 -79 38 -37 48 -41 92 -41 70 0 95 13 136 70 34 47
38 50 81 50 l45 0 -7 -62 c-4 -35 -8 -73 -9 -85 -1 -12 -4 -25 -8 -28 -3 -3
-183 -8 -399 -11 -217 -3 -422 -6 -457 -7 l-63 -2 -8 35 c-5 19 -9 42 -10 50
-2 35 -10 76 -16 93 -6 15 -2 17 37 16 38 -2 46 -6 66 -38z m-3244 -95 c43 -7
103 -33 112 -48 3 -5 -2 -12 -12 -14 -22 -6 -77 -81 -69 -93 2 -5 21 -16 41
-26 24 -11 33 -20 26 -27 -7 -7 -21 -2 -44 14 -53 39 -92 50 -180 51 -95 0
-178 -21 -229 -58 -19 -14 -41 -28 -49 -31 -8 -3 -31 -27 -50 -52 -99 -134
-119 -303 -54 -459 8 -18 14 -35 14 -38 0 -3 9 -15 19 -27 11 -11 17 -26 14
-32 -3 -6 -3 -8 0 -5 4 3 30 -16 58 -42 43 -41 151 -107 161 -98 2 1 12 -2 23
-8 50 -27 275 -36 275 -11 0 4 8 8 18 8 9 0 41 14 71 30 57 32 65 35 58 23 -3
-5 1 -41 8 -81 l12 -73 -46 -24 c-152 -77 -371 -70 -549 16 -56 28 -161 118
-197 170 -26 37 -54 97 -48 103 3 3 1 6 -5 6 -7 0 -11 3 -10 8 1 4 -7 34 -17
67 -26 83 -26 276 -1 360 29 97 84 191 149 255 33 33 63 57 68 54 5 -3 9 0 9
6 0 14 76 48 155 71 60 16 182 19 269 5z m586 -52 c59 -24 87 -50 96 -88 4
-17 8 -211 9 -431 1 -220 5 -413 9 -429 18 -75 66 -133 155 -186 61 -36 174
-80 207 -80 8 0 14 -5 14 -11 0 -5 4 -8 8 -5 4 3 27 1 50 -5 23 -5 59 -12 80
-15 20 -3 64 -10 97 -15 33 -6 89 -12 125 -14 36 -2 117 -6 180 -10 63 -3 126
-8 140 -10 14 -2 59 -7 100 -11 41 -3 84 -8 95 -10 11 -2 40 -7 65 -10 25 -3
85 -15 134 -25 49 -10 94 -19 99 -19 6 0 -1 -10 -14 -23 -53 -50 -119 -136
-153 -200 -20 -37 -35 -68 -34 -70 1 -1 -7 -53 -17 -114 -16 -96 -22 -114 -39
-119 -12 -4 -83 -37 -158 -74 -93 -46 -138 -63 -138 -53 0 28 -52 115 -100
168 -28 30 -50 53 -50 49 0 -3 -13 4 -29 15 -42 30 -107 56 -181 72 -74 16
-318 19 -500 6 -211 -16 -249 -17 -272 -8 -22 8 -22 8 8 24 16 8 35 26 42 39
14 26 28 102 26 134 -3 44 -46 114 -87 143 -41 28 -123 61 -153 61 -8 0 -19
12 -25 27 -6 15 -21 48 -33 73 -23 46 -41 111 -52 185 -3 22 -7 47 -9 55 -2 8
-7 43 -10 77 -3 34 -10 77 -15 94 -5 18 -7 35 -5 40 3 4 1 10 -5 14 -5 3 -10
14 -10 25 0 24 -39 96 -64 118 -43 37 -81 44 -155 27 l-34 -7 23 38 c37 61 82
114 91 108 5 -3 9 1 9 8 1 16 96 96 152 126 78 42 125 24 156 -61 21 -55 31
-104 38 -175 4 -53 9 -61 32 -57 9 2 23 4 30 4 9 1 11 17 6 68 -3 37 -7 70 -9
74 -2 3 -7 21 -10 40 -6 37 -67 171 -74 163 -2 -2 -13 4 -24 13 -31 29 -121
23 -184 -11 -29 -16 -61 -37 -72 -47 -11 -11 -26 -19 -32 -19 -7 0 -9 -3 -6
-7 4 -3 -2 -13 -13 -20 -16 -12 -24 -12 -35 -3 -8 7 -12 16 -9 21 3 5 -2 9
-10 9 -24 0 -29 20 -10 36 113 90 255 156 344 160 103 4 115 -6 144 -113 l11
-41 32 13 32 14 -13 45 c-8 25 -12 46 -9 46 2 0 -5 13 -16 29 -11 15 -18 30
-16 33 3 3 -14 13 -37 24 -66 29 -174 25 -265 -10 -67 -25 -74 -26 -89 -12 -9
9 -14 23 -11 30 7 19 107 66 170 82 72 17 221 11 277 -12z m3416 -148 c-2 -45
-5 -84 -5 -88 -2 -15 -74 -88 -87 -88 -8 0 -14 -4 -14 -10 0 -5 -4 -10 -8 -10
-5 0 -34 -14 -64 -30 l-56 -30 44 -89 c90 -177 62 -271 -102 -347 -67 -32
-306 -104 -349 -105 -11 -1 -42 4 -70 10 -27 6 -63 13 -80 15 -16 2 -57 8 -90
12 -64 9 -160 9 -211 1 l-31 -5 -12 69 c-16 101 -17 99 27 87 65 -17 212 -18
261 -1 46 16 58 23 98 63 44 44 57 80 57 155 0 39 -3 77 -5 85 -27 75 -68 121
-137 153 -38 18 -66 22 -142 22 -101 0 -141 -5 -151 -18 -3 -4 -16 -9 -27 -10
-12 -1 -22 -4 -22 -8 0 -3 -11 -11 -24 -17 -23 -10 -24 -9 -31 51 -25 197 -25
182 10 183 52 2 299 16 333 19 18 1 32 -2 33 -9 0 -6 2 -46 4 -89 4 -126 47
-147 168 -84 63 34 227 161 227 177 0 14 22 15 248 16 l213 1 -5 -81z m122 51
c18 -18 29 -36 26 -40 -4 -4 -2 -7 4 -7 16 0 56 -90 77 -175 18 -70 26 -240
13 -300 -13 -64 -21 -85 -31 -85 -6 0 -7 -3 -4 -7 4 -3 2 -12 -4 -20 -6 -7 -9
-13 -5 -13 7 0 -37 -81 -74 -135 -69 -100 -210 -214 -335 -270 -33 -15 -72
-33 -88 -41 -15 -9 -32 -12 -37 -9 -6 3 -10 2 -10 -3 0 -5 -64 -28 -142 -51
-79 -24 -187 -56 -242 -73 -54 -16 -106 -31 -115 -33 -31 -6 -196 -67 -232
-86 -20 -10 -39 -15 -43 -12 -3 4 -6 2 -6 -4 0 -6 -15 -16 -32 -24 -18 -7 -45
-21 -60 -31 -16 -11 -28 -17 -28 -13 0 3 -10 -3 -22 -15 -12 -11 -27 -20 -34
-20 -7 0 -14 -3 -16 -7 -1 -5 -25 -26 -52 -47 -229 -185 -311 -418 -252 -721
3 -16 8 -43 11 -59 3 -16 10 -37 16 -47 5 -10 9 -22 8 -26 -4 -26 77 -195 114
-239 31 -37 34 -48 10 -36 -10 5 -49 24 -87 42 -38 19 -95 58 -126 87 -56 52
-149 175 -154 204 -1 8 -7 23 -13 34 -12 23 -40 109 -47 145 -3 14 -7 36 -10
50 -25 111 -28 249 -10 350 9 47 17 97 19 112 5 38 37 108 74 161 45 67 199
218 266 264 68 45 125 76 125 68 0 -4 7 1 16 9 8 9 23 16 33 16 9 0 21 4 27 9
8 7 64 29 99 37 6 2 35 10 65 18 57 17 420 97 455 101 11 2 38 8 60 14 22 6
51 12 65 15 14 2 25 5 25 6 0 1 11 3 23 6 49 9 205 57 264 81 220 89 278 229
180 432 -25 51 -21 58 38 87 22 10 40 22 40 27 0 4 5 7 11 7 16 0 48 40 71 89
18 39 24 85 28 199 0 20 14 14 48 -21z m-663 5 c-11 -11 -23 -18 -27 -16 -3 2
-8 0 -10 -5 -5 -13 -149 -98 -178 -106 -25 -6 -25 -5 -27 69 l-3 74 132 1
c131 2 132 2 113 -17z m808 -42 c14 -11 29 -20 35 -20 5 0 20 -10 33 -22 14
-13 29 -24 34 -24 16 -2 65 -111 84 -187 25 -98 22 -224 -10 -401 -13 -74 -58
-196 -72 -196 -6 0 -7 -3 -4 -6 10 -11 -73 -122 -150 -201 -39 -40 -74 -73
-77 -73 -3 0 -18 -12 -33 -26 -61 -57 -285 -199 -296 -187 -4 3 -7 2 -7 -4 0
-11 -131 -81 -139 -75 -2 2 -7 -1 -10 -6 -3 -5 -34 -22 -69 -36 -34 -15 -91
-39 -125 -55 -34 -15 -116 -51 -182 -79 -162 -68 -207 -90 -294 -142 -71 -42
-161 -122 -161 -142 0 -5 -5 -6 -12 -2 -7 4 -8 3 -4 -4 4 -6 -1 -20 -11 -30
-10 -10 -19 -23 -20 -28 -1 -5 -19 -47 -39 -92 -33 -76 -36 -93 -37 -175 -1
-140 14 -224 58 -324 13 -29 25 -57 27 -60 2 -4 18 -23 35 -43 18 -19 33 -39
33 -43 0 -5 10 -17 23 -28 24 -20 23 -20 -115 24 -40 14 -141 91 -131 101 3 3
2 6 -4 6 -15 0 -74 84 -105 150 -37 77 -67 180 -88 299 -8 45 -5 187 4 230 17
76 79 211 97 211 5 0 8 4 5 9 -9 15 158 176 198 190 6 2 13 7 16 10 5 7 102
65 110 66 3 1 20 9 38 18 17 10 32 14 32 10 0 -5 4 -3 8 3 7 10 98 52 131 60
9 2 68 20 131 40 63 20 120 37 125 38 83 20 331 100 400 129 93 38 119 49 123
47 1 0 8 4 15 10 6 6 46 32 87 59 41 26 84 58 94 69 11 12 25 22 33 22 8 0 12
3 10 8 -3 4 19 34 49 67 68 75 147 232 167 331 28 143 7 327 -54 462 -30 66
-27 74 14 42z m-4298 -40 c57 -22 58 -29 7 -70 -76 -60 -85 -73 -71 -104 9
-19 20 -26 40 -26 36 0 60 -10 53 -21 -3 -5 0 -9 5 -9 19 0 12 -24 -18 -59
-16 -18 -38 -53 -50 -76 -22 -45 -39 -165 -22 -165 5 0 34 12 65 26 32 14 72
26 91 26 39 0 85 -37 88 -70 1 -12 4 -22 8 -22 9 0 17 -57 10 -69 -10 -15
-124 -69 -168 -79 -70 -16 -187 2 -271 41 -86 40 -182 151 -196 228 -3 13 -5
24 -6 24 -4 0 -10 43 -11 80 -7 169 110 332 251 350 18 2 34 6 37 8 8 9 128
-1 158 -13z m5926 -126 c16 -8 29 -20 29 -26 0 -6 3 -8 6 -5 4 3 25 -13 48
-36 56 -57 65 -70 76 -107 8 -28 5 -35 -25 -69 -19 -21 -43 -57 -54 -82 -27
-62 -106 -181 -114 -173 -4 4 -7 0 -7 -9 0 -8 -16 -32 -35 -53 -19 -20 -35
-39 -35 -42 0 -10 -243 -246 -285 -277 -22 -16 -42 -32 -45 -35 -3 -3 -41 -35
-85 -70 -44 -36 -82 -67 -85 -70 -36 -36 -129 -108 -134 -103 -3 3 -6 -1 -6
-10 0 -10 -4 -17 -8 -17 -9 0 -104 -91 -164 -157 -77 -85 -176 -252 -203 -343
-99 -332 72 -580 459 -665 111 -25 313 -23 403 4 17 5 34 7 37 3 3 -3 6 0 6 6
0 7 6 12 13 12 33 0 157 78 200 125 50 55 67 75 67 80 0 3 6 18 15 35 40 78
57 233 33 315 -4 17 -11 42 -13 57 -9 50 -81 202 -130 278 -54 82 -154 209
-197 251 -16 14 -28 29 -28 32 0 4 -12 19 -27 35 -16 15 -50 51 -76 79 l-49
51 22 20 23 21 30 -32 c16 -18 57 -63 91 -102 34 -38 66 -74 72 -80 5 -5 30
-37 55 -70 24 -33 47 -62 50 -65 30 -26 169 -261 169 -286 0 -8 5 -14 11 -14
6 0 9 -7 5 -15 -3 -8 -2 -15 3 -15 8 0 22 -35 26 -65 1 -5 5 -17 8 -25 33 -81
43 -222 22 -305 -40 -154 -175 -293 -410 -421 -49 -27 -115 -60 -145 -73 -30
-13 -68 -29 -85 -36 -73 -33 -108 -44 -116 -39 -5 3 -9 1 -9 -4 0 -5 -26 -17
-57 -27 -154 -46 -196 -58 -298 -85 -60 -16 -121 -31 -135 -34 -14 -3 -43 -10
-65 -15 -63 -15 -105 -20 -182 -22 -82 -2 -88 -5 -96 -40 -5 -19 -1 -31 14
-45 24 -22 52 -83 45 -100 -3 -7 -2 -15 2 -18 3 -4 7 -35 8 -69 9 -260 26
-358 77 -432 41 -60 68 -74 162 -89 17 -2 50 -8 75 -12 25 -4 59 -8 75 -10 17
-2 62 -7 100 -11 85 -9 571 -10 677 -1 71 6 76 6 73 -12 -2 -10 -7 -39 -10
-65 -4 -25 -13 -52 -21 -59 -7 -8 -11 -16 -8 -18 7 -7 -117 -133 -128 -130 -5
1 -7 -2 -4 -7 4 -5 1 -11 -4 -13 -14 -4 -15 -28 -1 -128 41 -315 49 -804 16
-970 -3 -14 -7 -35 -9 -48 -20 -101 -59 -192 -107 -247 -31 -35 -66 -48 -56
-21 6 15 -35 110 -52 120 -6 4 -8 12 -5 18 4 7 2 8 -4 4 -7 -4 -12 -3 -12 2 0
16 -65 42 -104 42 -46 0 -121 -38 -184 -92 -104 -91 -118 -101 -149 -114 -32
-14 -201 -20 -253 -10 -14 3 -45 8 -70 10 -80 9 -102 16 -139 44 -20 15 -39
31 -43 37 -5 7 -8 7 -8 0 0 -6 -3 -6 -8 1 -11 16 -81 46 -152 64 -95 24 -200
19 -283 -15 -17 -7 -17 -1 -12 91 10 177 48 270 118 293 45 15 86 9 187 -29
161 -60 226 -75 234 -53 15 38 6 51 -41 62 -27 7 -97 30 -156 52 -60 21 -129
41 -155 44 -127 12 -205 -57 -237 -212 -8 -36 -16 -68 -20 -71 -3 -4 -21 -5
-39 -4 -18 2 -51 -3 -73 -11 l-42 -14 4 46 c7 86 31 191 44 191 4 0 7 9 8 19
2 24 47 97 82 133 15 15 43 34 62 42 45 19 80 10 169 -42 36 -21 84 -45 106
-54 40 -16 42 -16 51 5 11 24 3 59 -12 58 -12 0 -69 28 -150 73 -33 18 -63 31
-67 29 -5 -2 -8 0 -8 5 0 12 -88 5 -125 -10 -27 -11 -134 -108 -118 -108 3 0
-1 -8 -9 -17 -8 -10 -28 -44 -43 -75 -17 -36 -34 -58 -44 -58 -9 0 -28 -7 -43
-14 -16 -8 -28 -13 -28 -11 0 15 45 121 54 127 6 4 8 8 4 8 -13 0 49 93 94
141 48 51 124 105 151 108 59 6 117 1 117 -12 0 -4 4 -5 10 -2 11 7 32 -3 118
-58 34 -22 62 -44 62 -49 0 -4 5 -8 11 -8 6 0 16 -6 23 -13 63 -62 236 -152
331 -173 173 -38 278 -33 377 17 40 20 88 64 88 79 0 6 4 10 8 10 18 0 46 108
48 185 4 100 -14 187 -49 248 -22 37 -33 47 -55 47 -15 0 -52 4 -82 7 -79 10
-263 10 -345 -1 -38 -5 -86 -9 -105 -9 -127 2 -123 1 -170 47 -83 81 -178 196
-164 196 5 0 4 4 -1 8 -60 41 -230 394 -317 657 -17 50 -43 116 -58 147 -16
31 -26 59 -22 62 3 3 0 6 -6 6 -7 0 -12 6 -13 13 -1 40 -171 257 -201 257 -5
0 -6 6 -2 13 4 6 4 9 -1 5 -4 -4 -26 5 -49 21 -40 27 -98 56 -163 81 -26 10
-33 18 -33 40 0 38 38 160 50 160 6 0 9 3 8 8 -3 10 19 48 45 79 80 94 158
142 432 263 65 28 161 77 202 102 l33 20 -8 -34 c-4 -18 -7 -82 -6 -143 1
-122 19 -189 73 -273 57 -88 118 -140 220 -189 67 -32 85 -36 171 -38 110 -3
260 16 369 46 42 12 82 22 89 22 6 0 12 4 12 9 0 4 6 8 14 8 14 0 314 104 321
112 2 2 1 17 -4 34 -5 20 -14 29 -28 30 -88 5 -273 48 -273 64 0 4 -6 7 -13 7
-21 0 -128 67 -166 104 -48 48 -86 107 -105 164 -60 176 -54 371 16 522 31 67
106 183 118 183 5 0 9 3 8 8 -4 10 28 53 34 46 4 -3 9 3 12 13 5 16 175 187
336 338 59 55 201 163 208 157 1 -1 10 6 21 16 10 9 33 30 52 45 60 50 139
129 139 138 0 5 8 9 17 9 9 0 14 3 10 6 -3 4 12 31 34 61 74 100 121 233 119
338 -2 78 -5 104 -18 136 -6 15 -12 35 -14 45 -2 11 -9 25 -15 32 -7 7 -13 17
-13 22 0 10 74 -6 111 -26z m-721 24 c0 -2 -7 -28 -15 -58 -47 -172 -40 -351
19 -480 30 -64 97 -174 113 -183 7 -4 13 -13 13 -18 0 -6 13 -24 30 -42 16
-18 30 -36 30 -41 0 -5 -3 -7 -6 -4 -3 4 -14 -2 -25 -13 -19 -19 -45 -17 -34
2 4 5 2 9 -3 9 -5 0 -27 26 -48 58 -22 31 -42 59 -46 60 -5 2 -8 10 -8 17 0 7
-4 15 -8 17 -11 4 -72 94 -72 106 0 6 -4 12 -9 14 -10 3 -61 91 -91 158 -14
30 -32 52 -55 64 -19 11 -32 23 -29 27 3 5 1 9 -4 9 -15 0 -41 62 -38 90 6 54
86 177 107 165 5 -4 9 -2 9 3 0 10 38 24 73 27 10 1 20 4 22 7 5 4 75 10 75 6z
m-560 -261 c29 -69 37 -101 35 -136 -5 -72 -16 -174 -20 -191 -2 -8 -7 -28
-10 -45 -11 -65 -16 -83 -46 -177 -17 -54 -35 -98 -41 -98 -5 0 -7 -4 -4 -9 6
-9 -61 -142 -76 -152 -5 -3 -10 -10 -9 -15 0 -14 -98 -144 -109 -144 -5 0 -9
-4 -7 -10 5 -22 -305 -290 -337 -290 -3 0 -15 -8 -26 -17 -11 -10 -23 -16 -27
-15 -3 2 -9 0 -12 -5 -7 -11 -128 -83 -145 -86 -6 -1 -13 -5 -16 -8 -6 -7
-296 -149 -305 -149 -3 0 -27 -10 -53 -21 -126 -57 -178 -85 -190 -101 -7 -10
-20 -18 -29 -18 -9 0 -13 -3 -10 -7 4 -3 -4 -16 -17 -28 -27 -25 -79 -130 -99
-200 -14 -48 -17 -235 -5 -275 25 -82 43 -130 50 -130 4 0 8 -5 8 -12 0 -6 8
-20 17 -30 15 -17 15 -18 -3 -15 -10 2 -38 8 -61 12 -43 8 -57 20 -178 160
-30 34 -70 109 -91 169 -36 101 -38 277 -4 362 29 71 64 137 98 182 24 32 113
100 121 93 2 -1 7 1 10 6 10 15 81 55 81 46 0 -4 4 -3 8 3 6 9 52 32 127 64
11 5 41 18 66 29 25 11 70 29 99 41 58 23 111 47 260 117 52 24 99 45 105 46
5 1 16 8 23 15 7 6 20 12 28 12 8 0 14 4 14 8 0 5 16 16 35 25 19 9 52 27 72
40 21 13 41 25 46 25 4 1 13 6 20 12 6 6 52 40 102 78 49 37 106 84 126 104
20 20 40 34 44 30 5 -4 5 -2 2 5 -4 6 3 20 15 30 13 10 38 38 57 63 19 25 41
51 50 58 8 6 12 12 8 12 -4 0 6 24 22 53 16 28 36 75 46 102 9 28 20 57 22 65
3 8 7 29 9 45 2 17 6 40 9 53 18 77 25 277 11 347 l-7 40 26 -39 c15 -21 44
-79 65 -129z m91 -454 c0 -105 -9 -241 -17 -254 -2 -4 -6 -27 -9 -50 -7 -56
-52 -207 -71 -236 -8 -13 -12 -23 -9 -23 9 0 -75 -160 -95 -180 -11 -11 -17
-20 -14 -20 4 0 -11 -21 -32 -47 -22 -27 -46 -57 -54 -67 -8 -11 -25 -30 -36
-42 -12 -13 -20 -24 -19 -26 2 -2 -21 -30 -51 -62 -30 -33 -54 -63 -54 -68 0
-4 -3 -8 -7 -8 -5 0 -24 -16 -43 -35 -50 -50 -156 -135 -168 -135 -6 0 -12 -4
-14 -9 -5 -13 -115 -71 -122 -64 -3 4 -6 1 -6 -6 0 -7 -4 -9 -10 -6 -5 3 -10
2 -10 -3 0 -10 -89 -48 -102 -44 -5 1 -8 -2 -8 -7 0 -4 -21 -16 -47 -26 -60
-22 -204 -98 -259 -136 -53 -36 -111 -94 -143 -144 -14 -22 -30 -43 -36 -47
-5 -4 -6 -8 -2 -8 5 0 1 -12 -7 -27 -9 -16 -22 -52 -29 -81 -13 -52 -13 -53
-32 -32 -10 11 -14 20 -9 20 5 0 4 4 -1 8 -19 13 -46 62 -40 72 3 6 2 10 -3
10 -27 0 -39 201 -18 295 16 74 56 144 111 198 42 41 77 61 220 123 94 41 196
88 228 104 31 17 57 27 57 23 0 -4 4 -3 8 3 8 13 134 79 145 76 4 -1 7 2 7 8
0 5 15 17 33 26 17 9 64 37 102 63 39 25 73 45 78 43 4 -1 7 2 7 7 0 5 26 28
57 52 64 48 202 185 243 241 15 21 31 34 36 30 5 -4 6 -3 2 1 -3 5 13 40 38
77 24 38 44 73 44 78 0 6 3 12 8 14 10 4 72 146 72 164 0 8 4 14 8 14 4 0 8
10 10 23 1 13 8 41 15 62 8 22 20 70 27 107 8 37 15 66 18 64 2 -3 4 -53 3
-113z m-4408 -318 c15 -27 27 -54 27 -59 0 -5 6 -14 14 -20 8 -6 17 -34 20
-63 3 -28 8 -57 11 -65 3 -7 7 -31 9 -53 3 -22 14 -92 25 -155 11 -63 21 -120
21 -125 0 -6 -17 -10 -37 -10 -52 1 -138 -19 -220 -52 -37 -15 -71 -27 -75
-25 -5 1 -8 -2 -8 -6 0 -7 -43 -32 -55 -32 -4 0 -17 55 -21 95 -2 17 -6 41 -8
55 -9 53 -17 96 -21 120 -3 14 -7 41 -10 60 -7 56 -15 103 -21 130 -8 34 -12
57 -19 110 -6 46 -10 66 -18 110 -3 14 -8 42 -12 63 l-7 37 50 0 c71 0 189 26
242 54 l45 24 21 -72 c11 -39 33 -93 47 -121z m5154 -39 c4 -8 31 -39 60 -70
29 -31 51 -56 50 -56 -1 0 28 -32 65 -72 37 -39 65 -75 62 -79 -2 -4 2 -9 10
-12 15 -6 106 -131 106 -146 0 -6 4 -11 8 -11 13 0 90 -168 112 -243 30 -105
23 -223 -17 -307 -30 -64 -71 -114 -127 -157 -16 -12 -33 -20 -38 -17 -4 3 -8
1 -8 -4 0 -8 -48 -34 -70 -38 -3 0 -17 -6 -31 -12 -131 -54 -424 -25 -588 58
-50 25 -163 110 -147 110 3 0 -6 12 -19 26 -14 15 -22 30 -19 35 3 5 1 9 -5 9
-29 0 -55 168 -38 245 5 22 11 51 13 64 7 33 52 138 73 170 10 14 34 51 54 81
20 30 71 92 114 137 84 88 339 303 359 303 7 0 17 -6 21 -14z m-4965 -77 c53
-29 89 -89 82 -139 -8 -56 -16 -71 -39 -80 -30 -12 -75 6 -76 29 0 9 -2 23 -4
31 -1 8 -6 33 -9 55 -7 44 -13 78 -20 112 -4 20 -2 21 20 12 14 -5 35 -14 46
-20z m28 -368 c21 -6 262 -3 297 4 69 13 362 17 446 6 87 -12 186 -43 198 -63
3 -5 8 -8 11 -6 9 6 78 -47 84 -64 3 -10 9 -18 14 -18 9 0 44 -57 64 -105 l14
-33 -51 -33 c-179 -113 -260 -172 -339 -245 -21 -19 -38 -33 -38 -31 0 2 -24
-19 -52 -46 -29 -27 -71 -61 -93 -75 -22 -15 -42 -29 -45 -32 -13 -15 -81 -49
-126 -63 -88 -28 -103 -27 -138 4 -56 49 -89 133 -112 289 -3 25 -8 54 -10 65
-2 11 -6 38 -9 61 -3 22 -10 55 -15 74 -5 18 -8 35 -6 37 9 9 -59 130 -86 155
-25 22 -30 35 -33 84 -2 32 -1 54 3 48 4 -5 14 -11 22 -13z m-68 -154 c4 -6 8
-8 8 -3 0 18 37 -25 59 -68 20 -42 43 -131 56 -222 3 -21 8 -50 10 -64 3 -14
7 -43 11 -65 3 -22 10 -58 16 -80 7 -22 12 -42 12 -45 3 -17 60 -119 79 -140
53 -59 134 -68 231 -27 21 9 44 17 51 17 7 0 18 7 25 15 7 8 16 15 21 15 8 0
97 58 109 70 3 3 34 30 69 60 35 30 87 76 115 102 28 26 55 48 59 48 4 0 18 9
29 20 31 28 205 143 214 140 4 -1 10 2 13 8 15 22 341 192 368 192 6 0 10 -12
10 -27 -1 -67 14 -176 37 -267 23 -90 92 -252 120 -282 6 -7 34 -39 61 -72 28
-34 55 -61 60 -62 6 0 23 -13 38 -29 l28 -29 -30 -13 c-17 -8 -31 -17 -31 -20
0 -8 -105 -78 -122 -81 -7 -2 -18 -10 -25 -18 -13 -17 -12 -18 -43 35 -84 142
-259 176 -477 93 -32 -12 -61 -21 -65 -20 -5 1 -8 -3 -8 -8 0 -6 -6 -10 -13
-10 -8 0 -53 -24 -100 -54 -47 -30 -88 -51 -91 -48 -3 3 -6 0 -6 -6 0 -7 -8
-20 -17 -31 -32 -33 -76 -86 -74 -89 3 -4 -72 -126 -82 -133 -5 -3 -8 -9 -8
-13 2 -13 -28 -61 -51 -83 -40 -37 -49 -33 -52 23 -4 66 -31 105 -94 136 -41
20 -64 23 -169 25 -115 1 -126 3 -192 34 -39 18 -71 36 -71 41 0 4 -4 8 -10 8
-23 0 -146 114 -178 165 -14 22 -44 84 -68 138 -44 102 -97 182 -124 186 -8 1
-32 3 -52 3 -45 0 -46 7 -9 73 37 68 93 106 161 110 94 7 134 -25 185 -145 34
-79 37 -82 67 -57 l27 22 -34 73 c-19 40 -34 75 -34 77 -1 3 -11 16 -25 30
-13 13 -26 28 -27 32 -8 17 -105 41 -154 37 -69 -5 -76 -7 -119 -32 -22 -13
-42 -20 -45 -15 -10 14 -50 33 -68 33 -29 1 94 110 153 136 72 32 154 40 197
19 29 -13 75 -71 69 -85 -2 -3 9 -6 24 -8 36 -5 46 15 29 55 -8 18 -12 33 -9
33 11 0 -53 53 -81 68 -30 15 -138 21 -180 9 -47 -13 -105 -37 -127 -51 -21
-13 -27 -14 -43 -2 -21 15 -13 36 15 36 10 0 20 5 22 11 2 5 11 11 20 12 9 2
22 8 30 15 17 13 81 38 148 57 53 14 141 10 152 -8z m-279 -655 c31 -50 82
-170 79 -184 -1 -5 2 -8 7 -8 5 0 11 -8 15 -17 10 -32 30 -57 101 -126 93 -91
89 -87 203 -147 48 -25 62 -37 63 -56 1 -13 2 -27 3 -31 2 -5 6 -30 11 -58 4
-27 9 -59 11 -70 5 -25 24 -150 29 -190 2 -16 6 -40 9 -51 4 -22 13 -71 22
-134 3 -19 14 -86 24 -149 11 -63 17 -117 15 -122 -3 -4 -2 -10 3 -13 4 -2 9
-24 11 -47 1 -23 4 -46 6 -50 3 -3 7 -26 10 -50 3 -24 7 -55 10 -69 5 -25 29
-181 40 -252 3 -21 1 -38 -3 -38 -5 0 -29 -19 -53 -43 -67 -65 -75 -69 -76
-48 -1 17 -18 112 -28 161 -3 14 -7 41 -10 60 -2 19 -5 35 -6 35 -1 0 -3 9 -5
20 -1 11 -10 58 -19 105 -9 47 -18 99 -20 115 -3 17 -7 41 -10 55 -3 14 -21
115 -40 225 -20 110 -42 232 -50 270 -8 39 -17 92 -21 120 -3 27 -10 59 -14
70 -4 11 -8 25 -8 30 0 6 -6 47 -13 92 -10 66 -18 88 -40 113 -16 17 -31 30
-34 30 -3 -1 -52 34 -109 77 l-104 78 -8 60 c-4 33 -8 71 -10 85 -1 14 -5 34
-7 45 -2 11 -8 43 -11 70 -4 28 -10 58 -13 69 -8 28 14 10 40 -32z m1747 -176
c68 -14 122 -66 151 -146 l21 -59 38 19 c21 11 40 16 44 13 3 -4 6 -1 6 5 0 6
18 21 39 32 22 11 69 42 106 70 36 27 70 50 76 50 5 0 9 5 9 10 0 12 24 13 48
1 47 -24 156 -64 204 -76 30 -7 139 -48 136 -51 -2 -1 -15 -5 -28 -7 -14 -2
-38 -9 -53 -15 -16 -7 -32 -12 -36 -12 -11 0 -250 -79 -286 -95 -16 -7 -41
-16 -55 -20 -81 -24 -411 -204 -377 -205 5 0 0 -15 -11 -32 -18 -30 -25 -52
-38 -113 -8 -35 -7 -128 1 -185 12 -89 68 -246 166 -468 115 -260 118 -268
125 -360 3 -43 7 -83 10 -91 6 -20 6 -210 -1 -245 -8 -40 -39 -97 -67 -123
-30 -29 -106 -63 -140 -63 -31 0 -78 19 -78 32 0 5 -4 7 -9 4 -17 -11 -94 87
-127 162 -19 43 -39 85 -45 95 -5 10 -7 22 -4 27 4 6 1 10 -4 10 -6 0 -11 5
-11 11 0 20 -54 125 -90 174 -119 162 -279 220 -460 169 -50 -14 -158 -61
-170 -74 -3 -3 -26 -20 -52 -37 l-46 -33 -7 43 c-4 23 -8 53 -10 67 -2 14 -11
66 -19 115 -9 50 -18 106 -20 125 -8 60 -16 113 -26 165 -5 28 -12 68 -15 90
-3 22 -12 78 -20 125 -12 76 -17 105 -31 200 -2 14 -6 45 -9 68 -3 24 -7 47
-9 50 -2 4 -7 30 -10 57 -4 28 -9 57 -11 65 -2 8 -6 37 -10 63 l-6 48 96 -2
c170 -3 215 -48 182 -180 -14 -55 -14 -59 2 -55 9 3 32 8 51 11 61 11 116 41
146 81 16 22 33 42 37 45 5 3 9 10 10 15 2 15 30 64 91 157 52 79 122 148 153
150 4 0 14 7 21 14 7 7 20 13 28 13 8 0 14 4 14 8 0 8 104 56 125 58 6 0 23 6
38 12 16 7 52 15 80 18 29 4 53 7 55 9 3 2 57 -3 82 -9z m1035 -176 c4 -6 10
-8 14 -6 4 3 25 1 46 -5 20 -6 45 -12 54 -14 9 -2 42 -11 74 -20 54 -16 58
-19 53 -41 -3 -13 -9 -34 -12 -47 -5 -20 5 -31 72 -77 158 -109 184 -156 219
-395 6 -45 26 -80 54 -94 32 -17 113 -32 189 -36 78 -3 86 -6 97 -43 6 -20 4
-23 -12 -19 -10 3 -38 8 -63 11 -25 3 -56 8 -70 12 -14 3 -39 7 -57 10 -26 3
-105 19 -193 39 -75 16 -287 55 -335 61 -95 12 -256 9 -300 -6 -22 -7 -41 -11
-41 -9 -2 6 -73 -81 -86 -104 -6 -12 -8 -45 -4 -80 14 -144 114 -207 322 -201
57 1 104 -2 104 -6 0 -5 -7 -15 -15 -24 -9 -8 -16 -19 -16 -23 -1 -19 -60 -74
-136 -127 -46 -32 -84 -61 -84 -64 -5 -27 -8 -105 -13 -287 -11 -410 -31 -535
-111 -701 -36 -74 -57 -103 -109 -151 -36 -33 -83 -67 -106 -76 l-40 -15 0 29
c0 16 -6 45 -14 64 -8 18 -12 35 -10 38 3 3 -15 15 -40 27 -37 17 -60 21 -119
19 -65 -2 -82 -8 -177 -57 -57 -30 -114 -61 -125 -68 -12 -8 -25 -11 -28 -7
-4 3 -7 1 -7 -5 0 -7 -9 -12 -19 -12 -11 0 -23 -5 -26 -11 -4 -6 -13 -8 -20
-5 -7 2 -16 1 -21 -4 -14 -12 -148 36 -212 76 -50 31 -212 184 -195 184 3 0
-3 8 -14 17 -11 10 -46 42 -77 71 -64 59 -113 87 -171 98 -22 5 -43 9 -47 10
-5 1 -31 2 -58 3 -35 1 -52 6 -56 16 -6 15 50 134 68 146 5 3 8 8 7 10 -8 11
88 129 104 129 4 0 18 11 33 25 14 13 30 22 35 19 5 -3 9 -1 9 5 0 5 13 12 29
16 33 7 86 -12 116 -43 40 -40 137 -150 136 -156 0 -6 58 -66 65 -66 3 0 16 8
28 17 l23 18 -45 58 c-25 32 -57 70 -71 85 -14 15 -43 47 -63 70 -21 23 -38
39 -38 36 0 -4 -11 5 -25 20 -14 15 -25 25 -25 22 0 -3 -15 1 -34 9 -61 26
-136 -5 -226 -91 -31 -30 -60 -51 -64 -46 -4 4 -6 1 -4 -7 2 -10 -16 -14 -83
-15 l-87 -2 87 90 c136 140 149 152 208 181 99 51 206 37 273 -35 28 -30 30
-31 55 -14 14 9 25 20 25 23 0 16 -72 78 -113 99 -81 40 -176 38 -267 -6 -43
-21 -118 -79 -144 -110 -16 -20 -25 -23 -61 -19 -23 3 -58 2 -79 -3 -20 -4
-36 -4 -36 1 0 5 3 9 8 9 4 0 22 14 41 30 69 61 198 141 266 165 137 48 254
27 358 -66 65 -58 107 -128 167 -279 53 -132 97 -205 155 -258 26 -23 49 -42
53 -42 4 0 19 -6 34 -14 18 -10 47 -13 85 -10 80 6 83 6 83 15 0 4 12 10 28
14 56 12 124 91 147 171 15 53 20 185 10 289 -2 22 -6 71 -10 108 -7 85 -31
153 -133 382 -84 190 -126 298 -143 374 -6 25 -13 55 -15 66 -14 54 -5 172 16
227 18 49 30 63 75 94 62 40 194 107 213 107 6 0 12 3 12 7 0 7 145 65 165 65
6 1 19 6 30 12 11 5 65 24 120 41 55 17 143 44 195 61 103 32 135 37 145 21z
m345 -98 c28 -5 90 -35 90 -44 0 -4 3 -7 8 -6 13 3 52 -13 52 -22 0 -5 9 -11
20 -15 25 -8 142 -124 135 -135 -3 -4 1 -10 9 -13 14 -6 122 -211 128 -243 2
-11 5 -21 8 -24 3 -3 10 -20 17 -37 l11 -33 -85 6 c-83 5 -140 23 -148 47 -2
7 -6 37 -9 67 -7 77 -39 191 -67 237 -13 21 -23 42 -21 46 1 5 -1 6 -6 3 -11
-7 -42 30 -34 40 4 4 2 5 -4 1 -5 -3 -27 9 -47 28 -20 19 -37 32 -37 29 0 -3
-13 4 -30 16 -16 12 -30 29 -30 39 0 21 11 35 19 24 3 -5 13 -9 21 -11z
m-2417 -1588 c2 -13 -4 -32 -17 -47 -12 -13 -37 -52 -56 -85 -37 -65 -49 -75
-51 -42 -1 11 -2 23 -3 28 -1 4 -5 25 -9 47 -4 22 -10 52 -13 66 -5 24 -1 27
41 38 25 6 50 9 55 6 5 -3 11 -2 14 3 10 17 34 8 39 -14z m130 -200 c-15 -24
-17 -25 -24 -8 -12 30 -10 34 16 34 25 0 25 0 8 -26z m-100 9 c7 -11 21 -113
20 -143 0 -14 -9 -43 -19 -65 -30 -67 -29 -78 6 -70 26 6 31 3 39 -18 6 -14
12 -47 15 -73 4 -27 8 -56 10 -64 3 -8 7 -37 11 -64 l6 -49 -27 34 c-16 19
-56 64 -91 101 -39 40 -63 75 -64 90 0 12 -2 30 -4 38 -1 8 -6 33 -9 55 -4 22
-14 75 -22 118 -9 43 -13 81 -9 85 4 4 30 12 58 18 69 15 75 15 80 7z"/>
<path d="M1254 5621 c4 -6 -1 -37 -10 -69 -10 -31 -18 -60 -20 -64 -1 -5 -2
-9 -4 -10 -1 -2 -3 -11 -5 -21 -11 -58 -30 -117 -37 -117 -5 0 -7 -4 -4 -8 3
-5 0 -26 -6 -48 -7 -21 -13 -42 -14 -46 -1 -5 -2 -9 -4 -10 -2 -3 -6 -20 -13
-48 -15 -68 -32 -120 -39 -120 -4 0 -5 -6 -2 -14 3 -8 0 -24 -6 -36 -7 -13
-13 -32 -14 -44 -4 -36 -29 -126 -35 -126 -3 0 -7 -11 -7 -25 -1 -14 -5 -33
-10 -43 -9 -21 -8 -16 -24 -84 -7 -32 -16 -58 -20 -58 -4 0 -7 -6 -7 -12 2
-22 -14 -98 -21 -98 -4 0 -8 -14 -9 -32 -1 -17 -6 -34 -10 -37 -5 -3 -9 -15
-11 -26 -1 -11 -4 -24 -6 -30 -1 -5 -6 -27 -11 -47 -4 -21 -11 -38 -17 -38 -5
0 -6 -4 -3 -10 3 -5 3 -16 -1 -22 -5 -7 -9 -19 -10 -28 -2 -13 -17 -68 -28
-105 -1 -5 -6 -27 -11 -47 -4 -21 -11 -38 -17 -38 -5 0 -7 -4 -4 -8 6 -10 -32
-154 -43 -162 -3 -3 -7 -18 -8 -34 -1 -16 -5 -37 -9 -45 -8 -18 -11 -28 -17
-56 -3 -11 -12 -45 -21 -75 -9 -30 -16 -58 -16 -63 0 -4 -6 -23 -14 -42 -9
-20 -15 -36 -15 -38 3 -11 -15 -77 -20 -77 -4 0 -7 -8 -8 -17 -2 -26 -12 -74
-22 -103 -5 -14 -15 -47 -22 -75 -6 -27 -15 -54 -18 -60 -3 -5 -6 -12 -6 -15
-9 -56 -19 -89 -26 -85 -5 4 -6 -1 -3 -10 4 -8 1 -21 -5 -29 -6 -7 -8 -15 -5
-18 3 -3 -2 -22 -10 -42 -8 -20 -13 -36 -10 -36 2 0 -2 -16 -10 -35 -8 -19
-13 -35 -11 -35 2 0 -7 -35 -21 -77 -13 -43 -24 -86 -24 -95 0 -10 -3 -18 -7
-18 -5 0 -9 -14 -10 -32 -1 -17 -6 -34 -10 -37 -5 -3 -9 -19 -11 -34 -2 -16
-8 -40 -14 -55 -6 -15 -12 -38 -14 -52 -2 -14 -8 -26 -13 -28 -5 -2 -7 -10 -5
-17 3 -8 2 -20 -2 -27 -4 -7 -9 -24 -10 -37 -2 -14 -8 -27 -14 -29 -5 -2 -8
-7 -5 -11 2 -5 0 -23 -6 -42 -6 -19 -12 -45 -15 -59 -3 -14 -9 -26 -14 -28 -5
-2 -7 -9 -4 -16 3 -7 -1 -26 -7 -42 -7 -16 -13 -36 -14 -44 -4 -28 -30 -115
-35 -120 -3 -3 -6 -16 -8 -30 -1 -14 -5 -32 -9 -40 -3 -8 -8 -25 -10 -38 -2
-12 -9 -35 -15 -50 -6 -15 -10 -33 -9 -39 1 -7 -2 -13 -6 -13 -4 0 -9 -14 -10
-31 -1 -17 -7 -37 -13 -44 -5 -6 -7 -14 -5 -17 3 -3 0 -18 -7 -34 -6 -16 -13
-36 -14 -44 -7 -36 -25 -104 -31 -114 -4 -6 -8 -17 -8 -26 -2 -14 -30 -113
-43 -150 -3 -8 -4 -21 -3 -29 1 -8 -2 -10 -10 -5 -8 4 -10 3 -5 -4 4 -7 2 -29
-4 -49 -20 -65 -28 -113 -18 -107 5 3 15 -2 22 -11 12 -17 14 -17 28 3 8 12
18 19 23 14 5 -4 5 -2 1 5 -4 7 2 21 14 33 11 11 17 20 13 20 -3 0 4 9 17 20
13 11 19 20 15 20 -5 0 2 11 15 25 12 13 27 23 33 22 6 -1 11 5 12 13 0 8 10
20 23 26 13 6 23 15 24 20 0 5 4 8 10 6 5 -1 7 2 4 6 -7 12 28 44 39 35 4 -5
5 -3 2 3 -8 14 36 57 47 47 4 -5 6 -1 4 7 -2 8 3 14 11 15 8 0 15 8 17 18 5
38 28 117 33 117 3 0 7 14 8 31 1 17 7 37 13 44 5 6 7 15 4 18 -3 3 -2 12 2
19 5 7 9 18 11 23 18 82 65 250 76 270 6 11 9 22 8 25 -2 7 20 102 27 115 3 5
7 16 8 25 7 46 39 150 46 150 5 0 7 4 3 9 -4 8 26 133 51 211 3 8 5 16 5 17 0
2 9 33 20 70 11 38 22 75 24 83 2 8 13 49 24 90 12 41 23 82 26 90 2 8 4 15 5
15 1 0 3 11 6 25 2 14 12 50 21 80 9 30 18 64 20 75 2 10 7 22 11 25 4 3 8 21
10 40 1 19 6 37 10 40 4 3 7 10 7 15 1 25 17 85 23 85 4 0 8 17 10 37 1 20 7
42 12 48 5 7 7 15 3 18 -3 4 -1 7 6 7 7 0 10 4 6 9 -7 13 17 101 28 101 4 0 5
5 2 10 -7 12 4 54 12 46 3 -2 14 4 26 14 11 11 23 17 27 15 5 -3 11 2 14 11 3
8 10 12 16 9 5 -3 10 -3 10 2 0 9 62 47 73 45 4 -1 7 3 7 10 0 6 3 9 6 6 3 -4
14 2 25 13 11 11 25 17 31 13 7 -4 8 -3 4 4 -4 7 -3 12 2 12 5 0 26 11 46 25
20 13 36 22 36 20 0 -3 9 3 19 12 11 9 18 20 15 24 -2 4 1 20 7 36 7 15 13 33
14 38 1 6 3 15 5 20 1 6 3 15 4 20 5 37 30 122 39 133 5 6 7 12 3 12 -3 0 0
15 7 33 8 17 12 38 10 45 -3 6 0 12 5 12 5 0 9 6 8 13 -2 22 38 167 47 167 4
0 5 5 2 10 -4 6 -1 27 6 48 7 20 14 42 15 47 2 6 5 19 8 30 3 11 11 44 18 73
7 28 16 52 21 52 4 0 6 4 3 8 -3 5 -1 24 4 43 5 19 10 39 11 44 1 6 6 21 11
35 6 14 12 38 15 54 3 16 9 41 15 55 6 14 12 38 14 52 2 15 9 39 15 55 6 16
13 42 15 57 2 16 8 36 13 45 5 10 6 24 1 33 -5 9 -11 31 -13 50 -2 19 -6 39
-9 45 -4 5 -9 28 -12 49 -3 22 -15 83 -26 135 -12 52 -22 102 -23 111 0 9 -16
22 -34 28 -18 7 -33 17 -33 22 0 5 -3 8 -8 7 -11 -4 -92 34 -92 43 0 5 -7 6
-15 3 -8 -4 -15 -1 -15 7 0 7 -3 9 -6 6 -7 -7 -64 22 -76 38 -4 6 -8 6 -8 2 0
-4 -10 -3 -21 4 -15 8 -19 8 -15 0z m127 -132 c3 -6 8 -9 11 -7 3 2 95 -36
116 -48 4 -3 29 -99 36 -139 3 -16 15 -79 27 -140 l22 -110 -57 -205 c-31
-113 -58 -212 -60 -220 -2 -8 -27 -100 -56 -205 -28 -104 -53 -197 -55 -205
-11 -50 -58 -217 -63 -225 -3 -5 -7 -16 -7 -25 -1 -8 -10 -42 -19 -76 -16 -56
-22 -63 -69 -91 -29 -17 -56 -31 -61 -31 -5 0 -12 -4 -15 -9 -9 -14 -104 -75
-119 -77 -8 -2 -17 -7 -20 -12 -4 -6 -24 -20 -45 -33 -44 -27 -50 -37 -67
-111 -7 -30 -17 -61 -23 -67 -5 -7 -7 -13 -4 -13 3 0 1 -15 -4 -32 -6 -18 -12
-42 -14 -52 -5 -21 -23 -83 -32 -106 -3 -8 -7 -22 -8 -30 -4 -24 -35 -141 -51
-187 -7 -24 -16 -56 -19 -71 -3 -16 -14 -58 -24 -93 -11 -35 -45 -156 -76
-269 -54 -199 -73 -268 -136 -490 -16 -58 -34 -121 -39 -140 -5 -19 -24 -84
-41 -145 -17 -60 -33 -117 -34 -125 -3 -13 -22 -82 -41 -150 -4 -14 -54 -72
-110 -129 -94 -95 -109 -105 -91 -61 3 8 16 53 27 100 11 47 24 92 27 100 9
21 9 21 17 63 5 20 12 40 17 43 5 3 7 9 4 14 -3 5 0 21 6 37 7 15 13 35 14 43
2 16 143 516 152 540 3 8 7 22 8 30 3 17 63 228 72 250 3 8 7 22 8 30 4 29 99
365 105 370 3 3 6 14 7 25 2 25 33 137 41 150 3 5 7 16 8 25 2 17 144 521 149
530 2 4 6 19 9 34 5 27 21 85 33 116 3 8 7 22 8 30 1 8 23 88 49 178 25 89 46
169 46 177 0 8 5 15 12 15 6 0 9 3 6 6 -5 5 23 124 39 164 3 8 6 18 5 22 -1 4
3 20 9 35 6 15 12 36 14 45 2 9 19 72 39 140 114 400 158 555 161 569 5 22 45
161 52 179 3 8 7 29 9 45 3 17 9 31 14 33 5 2 6 10 3 18 -5 13 -1 13 33 -1 21
-9 41 -20 45 -26z"/>
</g>
</svg>
