<svg width="553" height="667" viewBox="0 0 553 667" fill="none" xmlns="http://www.w3.org/2000/svg">
<path d="M94.3032 179.234C100.371 183.364 107.541 186.108 115.813 188.163L122.982 229.371L89.8906 406.558L75.003 419.602L33.6454 640.727L0 673L94.3032 179.234ZM121.881 179.924C90.998 179.234 66.1778 149.016 66.1778 111.249C66.1778 70.7299 91.546 41.8835 123.53 41.8835C138.418 41.8835 151.656 50.1223 160.475 63.8631C147.797 61.8086 135.661 72.7914 131.802 85.1531C128.497 83.7811 125.734 83.7811 123.53 83.7811C110.846 83.7811 100.919 96.1429 100.919 111.249C100.919 126.354 110.852 139.405 123.53 139.405C136.214 139.405 143.938 127.037 143.938 111.249C143.938 110.559 143.938 109.194 143.938 108.505C144.486 107.808 145.588 107.808 147.243 107.808C149.447 107.808 151.656 109.187 151.656 113.992C151.656 119.487 150 129.788 150 140.088C150 149.699 151.656 156.565 153.859 163.432L172.617 260.954C169.854 263.705 167.097 267.132 164.888 271.254C154.413 274.005 145.588 282.244 141.734 293.916L121.881 179.924ZM237.139 244.477C221.15 244.477 211.217 245.856 200.183 245.856C183.092 245.856 170.408 236.92 166.549 219.753C173.165 219.753 178.126 212.886 178.126 204.647C178.126 188.163 157.724 171.685 157.724 140.095C157.724 129.795 158.826 120.177 158.826 112.627C158.826 104.389 153.311 98.8938 147.243 98.8938C142.283 98.8938 137.87 101.638 135.661 104.389C134.559 85.1601 147.243 70.7369 163.238 72.1089C165.442 65.9316 173.713 58.3682 183.092 58.3682C189.708 58.3682 193.019 60.4296 196.33 63.1806C199.087 61.8086 202.392 61.1191 206.805 61.1191C219.489 61.1191 233.275 74.1703 233.275 94.0814C233.275 112.627 224.45 121.549 215.63 129.112C211.217 133.235 210.116 137.351 210.669 143.528C211.217 151.085 214.528 164.136 216.184 171.003C217.834 177.18 221.698 179.931 227.766 179.242C258.095 176.491 301.662 172.382 328.132 171.003C352.952 169.631 370.602 168.941 391.004 167.569C352.393 179.242 330.335 211.521 324.273 257.542L306.622 269.2C302.764 250.647 282.91 244.477 237.139 244.477ZM212.319 430.592C218.935 428.523 222.241 422.346 222.241 416.858C222.241 408.612 218.382 403.125 213.415 399.002C205.144 392.81 196.324 387.329 188.601 379.084C180.324 370.155 175.363 362.606 170.402 354.353C166.543 348.872 163.233 346.804 158.266 346.804C152.204 346.804 147.791 352.299 147.791 358.476C147.791 361.909 148.345 364.674 149.441 366.729C141.169 363.295 136.209 352.299 136.209 340.626C136.209 329.637 141.729 321.405 147.238 317.282C146.689 315.228 146.136 312.47 146.136 309.036C146.136 294.613 155.509 280.879 170.402 279.521C173.159 269.896 181.437 262.34 192.465 262.34C205.697 262.34 219.483 274.709 219.483 296.688C219.483 307.678 217.28 310.422 217.28 318.654C217.28 323.466 218.382 327.589 223.896 334.456C230.518 342.702 233.823 347.5 237.682 347.5C241.546 347.5 243.75 345.446 248.157 341.323C272.971 315.235 294.481 287.76 324.267 267.849C324.821 300.115 334.742 326.231 356.252 346.135L337.499 363.992C334.194 359.869 330.883 358.49 326.471 358.49C319.301 358.49 312.131 361.923 301.102 370.866C288.413 381.166 267.463 407.944 252.575 425.801C244.298 436.101 235.478 441.596 227.207 441.596C220.596 441.575 215.076 438.148 212.319 430.592ZM165.442 304.238C158.272 304.238 153.311 309.036 152.209 314.538C154.413 313.842 157.176 313.159 160.475 313.159C168.753 313.159 175.922 317.978 179.233 326.217C180.889 313.152 174.821 304.238 165.442 304.238ZM217.286 640.727L175.922 419.602L161.029 406.558L153.859 363.978C152.763 358.476 154.967 355.732 158.272 355.732C160.475 355.732 162.136 357.111 164.34 359.855C171.51 370.155 175.922 376.333 183.646 384.578C188.058 389.398 193.567 393.507 199.087 396.933L233.275 581.669C227.766 587.854 223.902 597.472 223.902 607.758C223.902 615.328 225.563 622.195 228.314 628.372C227.212 631.806 226.659 635.246 226.659 639.362C226.659 643.471 227.212 647.608 228.862 651.717L217.286 640.727ZM190.262 91.3304C190.262 79.6582 182.538 72.1019 175.369 72.1019C172.063 72.1019 169.854 73.4809 168.204 74.1633C177.578 78.9757 184.194 89.269 183.646 108.505C188.606 104.382 190.262 97.5148 190.262 91.3304ZM199.087 293.923C199.087 284.995 193.019 276.77 185.296 276.77C180.889 276.77 178.126 278.825 176.476 280.19C186.951 282.948 195.223 293.923 195.776 307.664C197.432 304.238 199.087 300.797 199.087 293.923ZM216.737 87.2216C216.737 76.9143 209.562 69.3579 201.296 69.3579C204.596 72.7913 207.912 81.0372 207.912 89.9655C207.912 94.0743 207.359 99.5763 205.149 105.761C211.771 103.01 216.737 96.8253 216.737 87.2216ZM234.382 639.355C234.382 634.543 234.93 631.799 236.591 626.986C233.829 622.878 231.625 615.997 231.625 607.751C231.625 599.519 234.93 590.598 242.1 585.096C239.891 564.495 253.129 550.762 268.022 550.762C284.565 550.762 292.837 565.185 295.599 579.608C297.803 589.915 301.114 593.342 304.978 594.024C312.142 595.396 323.719 594.024 328.132 592.659C333.098 591.28 335.307 587.847 335.307 577.547C335.861 505.452 328.685 459.424 328.685 433.336C328.685 405.179 341.37 392.81 354.607 387.329C372.252 379.773 406.999 373.596 424.09 374.285C431.808 374.285 435.673 380.463 438.984 386.64C445.04 398.319 450.012 410.674 456.069 426.476C451.662 429.22 449.459 434.032 449.459 440.899C449.459 450.51 453.86 458.756 459.934 462.879L395.417 464.933C394.858 469.746 394.858 474.558 394.858 478.667C394.858 487.602 399.83 493.773 406.44 493.773C411.401 493.773 415.819 491.718 419.683 487.595C421.893 515.752 408.09 524.673 393.767 525.363C394.31 550.769 395.417 569.301 395.417 615.328C395.417 648.284 382.179 668.195 363.427 668.195C364.54 666.83 365.088 664.775 365.088 662.707C365.088 649.662 353.506 643.478 345.234 643.478C328.685 643.478 319.866 659.97 301.662 659.97C285.672 659.97 279.051 643.478 266.92 643.478C259.197 643.478 253.682 649.67 253.682 657.901C253.682 662.024 254.784 665.458 256.993 668.891C246.507 668.877 234.382 656.522 234.382 639.355ZM255.886 602.27C245.411 602.27 239.885 612.57 240.998 620.816C243.202 617.383 247.614 612.57 256.44 612.57C263.604 612.57 269.118 616.693 272.429 621.506C272.429 611.888 266.915 602.27 255.886 602.27ZM260.852 570.68C252.027 570.68 247.614 576.857 247.061 582.359C249.264 580.98 252.575 579.608 257.536 579.608C266.361 579.608 273.531 585.792 275.74 591.97C276.842 580.98 271.327 570.68 260.852 570.68ZM332.539 268.518C332.539 223.187 360.122 182.675 402.575 170.306C418.576 165.501 432.356 162.75 451.108 156.572C486.404 144.9 497.432 125.672 497.432 100.259C497.432 93.3919 496.331 87.897 493.568 82.4021C494.121 86.518 494.121 89.9585 494.121 94.0743C494.121 121.542 473.719 146.265 443.939 149.706C427.944 151.078 410.858 153.822 394.304 155.89C390.451 156.572 388.79 154.511 388.79 150.395L388.23 117.426C388.23 116.047 388.79 114.682 390.451 114.682C391.541 114.682 392.1 115.364 392.654 116.736C395.965 122.921 402.575 129.098 411.954 129.098C419.678 129.098 424.085 123.603 424.085 117.426C424.085 110.552 419.124 104.382 409.192 104.382C387.677 104.382 376.648 122.928 352.941 122.928C327.024 122.928 318.199 107.126 318.199 92.0199C318.199 79.6582 323.708 72.1019 330.883 67.986C328.674 71.4194 328.12 74.1633 328.12 78.9757C328.12 89.276 338.053 97.5148 355.698 97.5148C372.235 97.5148 382.71 92.7094 395.4 92.7094C411.943 92.7094 421.876 99.5763 426.283 107.126C425.723 91.3304 416.344 77.5967 404.225 77.5967C395.954 77.5967 392.643 83.7811 391.535 86.525C390.993 88.5795 389.886 89.276 388.784 89.276C387.677 89.276 386.575 88.5865 386.575 87.2216L383.818 52.8803C383.264 48.7644 384.925 46.703 389.338 46.0135L417.463 43.2625C422.424 60.4296 425.735 70.0474 432.91 70.0474C436.763 70.0474 438.424 64.5526 438.424 59.7542C444.492 57.6857 450.555 57.6857 456.617 58.3682C449.453 52.1908 425.735 55.6242 418.576 43.2695C430.158 42.58 438.978 41.8906 448.357 41.8906C457.725 41.8906 465.996 41.8905 473.714 43.2695C482.539 44.6415 491.359 50.8259 491.359 62.4981C491.359 70.0474 488.059 75.5423 481.985 75.5423C479.776 75.5423 478.126 74.8528 475.917 72.7914C476.471 78.2862 480.889 81.7267 485.296 81.7267C492.472 81.7267 497.427 76.2318 497.427 64.5526C497.427 58.3682 496.325 51.5084 492.466 46.0135C504.048 57.6857 511.213 78.2862 511.213 102.32C511.213 144.218 499.088 166.19 461.583 182.675C442.272 190.907 426.842 196.409 407.53 205.337C376.105 219.753 357.353 246.545 357.353 284.313C357.353 310.415 367.823 339.944 389.891 353.678C356.257 348.176 332.539 310.415 332.539 268.518ZM365.63 286.367C365.63 249.282 382.173 227.316 414.152 212.197C431.803 203.958 448.894 197.781 464.883 191.603C504.048 174.436 517.834 149.016 517.834 103.699C517.834 84.4706 513.416 65.9245 506.252 54.9347C518.382 67.986 528.304 87.897 528.304 122.231C528.304 157.944 520.032 194.34 480.33 212.879C461.583 221.815 451.097 226.613 431.243 236.913C400.361 253.405 390.439 275.37 390.439 304.906C390.439 333.063 402.564 348.865 411.943 358.469C389.338 353.678 365.63 324.817 365.63 286.367ZM398.722 305.596C398.722 278.135 409.197 259.589 436.215 243.794C453.318 234.176 465.996 230.743 485.85 220.443C525.004 201.207 534.937 164.818 534.937 122.928C534.937 108.505 533.287 91.3304 527.208 76.9072C535.496 89.269 545.417 108.505 545.417 146.265C545.417 185.412 534.942 221.815 500.195 243.098C483.652 252.715 472.623 258.217 453.866 269.186C432.362 282.934 420.231 302.162 420.231 324.81C420.231 342.681 426.853 356.408 432.921 363.964C411.949 356.422 398.722 331.698 398.722 305.596ZM448.894 34.3342C437.871 34.3342 426.842 35.0237 415.26 36.3886L400.366 0H425.729C425.729 8.23881 430.701 14.4161 436.758 14.4161C442.826 14.4161 447.786 8.23881 447.786 0H470.409C470.409 8.92127 474.81 14.4161 481.432 14.4161C487.488 14.4161 492.46 6.86684 492.46 0H517.829L500.732 37.7747C486.946 35.7132 469.307 34.3342 448.894 34.3342ZM428.503 325.521C428.503 306.292 438.978 290.497 457.725 278.135C470.957 269.889 481.985 264.402 504.048 250.654C538.784 229.378 552.028 194.354 552.028 146.962C552.028 134.6 550.367 124.3 548.717 111.945C554.779 127.044 559.74 144.907 559.74 167.569C559.74 212.886 547.067 256.845 510.653 280.19C495.223 289.815 486.392 295.992 474.81 302.859C457.165 312.47 448.888 327.582 448.888 345.439C448.888 359.173 451.645 366.729 454.408 372.906C438.424 367.411 428.503 349.541 428.503 325.521ZM456.617 442.257C456.617 435.383 458.278 431.274 464.889 429.902C457.176 408.612 451.108 394.872 446.696 385.943C445.035 382.51 446.696 380.456 448.899 380.456C452.21 380.456 454.967 381.835 457.176 385.943C461.041 392.135 466.002 401.746 469.861 410.667C477.03 426.469 481.443 441.582 481.985 463.561H476.465C464.889 463.554 456.617 453.24 456.617 442.257ZM495.766 639.355C495.766 634.543 496.325 631.799 497.986 626.986C495.229 622.878 493.025 615.997 493.025 607.751C493.025 599.519 496.325 590.598 503.5 585.096C501.297 564.495 514.529 550.762 529.422 550.762C545.965 550.762 554.237 565.185 556.994 579.608C559.198 589.915 562.508 593.342 566.373 594.024C573.537 595.396 585.114 594.024 589.526 592.659C594.498 591.28 596.702 587.847 596.702 577.547C596.702 560.387 592.849 537.732 589.526 518.489C581.255 519.854 560.847 521.24 545.412 521.24C511.218 521.24 491.918 502.018 488.607 460.114C487.5 442.947 484.737 426.469 476.471 407.923C470.42 393.5 456.617 374.278 456.617 349.541C456.617 331.009 462.137 320.026 479.24 309.719C491.364 302.852 505.704 294.613 517.84 285.692C517.281 309.719 528.869 341.998 543.762 355.732C560.305 370.845 575.735 374.968 598.346 374.968C624.268 374.968 649.077 365.343 662.32 346.114C654.608 352.292 644.116 355.725 630.89 355.725C590.074 355.725 564.164 316.585 564.164 274.688C564.164 244.469 577.396 217.678 599.453 195.023C617.657 176.477 634.195 164.811 646.879 149.009C655.151 138.709 662.32 126.347 662.32 111.931C662.32 94.7568 652.947 78.2792 643.026 73.4738C648.54 65.235 659.569 57.6716 669.49 57.6716C686.044 57.6716 701.474 72.7773 701.474 92.7024C701.474 107.801 694.31 119.48 684.931 124.975C685.491 136.654 679.417 151.753 672.258 161.378C658.461 179.917 633.087 199.835 616.55 216.32C600.007 232.797 591.188 249.971 591.188 273.316C591.188 304.231 611.041 326.879 636.41 326.879C660.111 326.879 680.524 304.224 680.524 272.619C680.524 243.78 663.976 222.49 638.613 208.081L659.574 189.535C682.185 206.012 707 228.674 707 277.439C707 344.735 663.439 403.793 592.854 403.793C570.786 403.793 564.723 400.374 550.932 393.493C559.757 403.793 569.136 418.899 569.678 437.445C580.701 441.568 588.43 443.622 612.154 443.622C622.629 443.622 636.969 441.568 648.546 437.445C656.817 434.687 661.778 430.578 664.535 425.772C667.287 431.267 668.936 437.445 668.936 442.933C668.936 458.735 659.574 471.089 649.642 473.847C653.506 522.605 656.817 571.355 656.817 615.314C656.817 648.269 643.585 668.18 624.827 668.18C625.935 666.816 626.488 664.761 626.488 662.693C626.488 649.648 614.906 643.464 606.634 643.464C590.08 643.464 581.26 659.956 563.062 659.956C547.078 659.956 540.457 643.464 528.321 643.464C520.603 643.464 515.088 649.655 515.088 657.887C515.088 662.01 516.184 665.444 518.399 668.877C507.919 668.877 495.766 656.522 495.766 639.355ZM517.281 602.27C506.8 602.27 501.297 612.57 502.387 620.816C504.596 617.383 509.009 612.57 517.834 612.57C524.998 612.57 530.513 616.693 533.824 621.506C533.829 611.888 528.309 602.27 517.281 602.27ZM522.241 570.68C513.416 570.68 509.009 576.857 508.461 582.359C510.664 580.98 513.975 579.608 518.942 579.608C527.767 579.608 534.931 585.792 537.14 591.97C538.242 580.98 532.727 570.68 522.241 570.68ZM591.182 123.61C582.91 118.115 575.735 106.45 575.735 92.7094C575.735 72.7913 589.521 57.6787 606.075 57.6787C618.754 57.6787 627.579 65.235 633.087 73.4809C622.612 80.3477 614.347 96.8253 614.347 111.938C614.347 131.849 622.618 144.211 630.336 154.511L609.928 173.057C598.346 160.006 591.182 142.839 591.182 123.61Z" fill="black" fill-opacity="0.04"/>
</svg>
